<?xml version="1.0" encoding="UTF-8" standalone="no"?>
<!-- Created with Inkscape (http://www.inkscape.org/) -->

<svg
   width="134.67331mm"
   height="134.67332mm"
   viewBox="0 0 134.67331 134.67332"
   version="1.1"
   id="svg1"
   xml:space="preserve"
   xmlns="http://www.w3.org/2000/svg"
   xmlns:svg="http://www.w3.org/2000/svg"><defs
     id="defs1" /><g
     id="layer1"
     transform="translate(-40.929344,-31.814695)"><g
       id="g7"><rect
         style="fill:#6f5c9e;fill-opacity:1;stroke:none;stroke-width:0.326683"
         id="rect1"
         width="134.67331"
         height="134.67332"
         x="40.929344"
         y="31.814695"
         ry="15.508545" /><path
         style="fill:#ece8e6;fill-opacity:1;stroke:none;stroke-width:0.329999"
         id="path1"
         d="m 84.953516,45.529316 c 0,3.116334 -11.739647,3.122121 -13.943228,5.325702 -2.203581,2.203582 -2.209368,13.943228 -5.325702,13.943228 -3.116335,0 -3.122122,-11.739646 -5.325703,-13.943228 -2.203581,-2.203581 -13.943228,-2.209368 -13.943228,-5.325702 0,-3.116334 11.739647,-3.122121 13.943228,-5.325702 2.203581,-2.203582 2.209368,-13.943228 5.325703,-13.943228 3.116334,0 3.122121,11.739646 5.325702,13.943228 2.203581,2.203581 13.943228,2.209368 13.943228,5.325702 z"
         transform="matrix(0.94162956,0,0,0.94162956,12.696502,16.930003)" /><path
         style="fill:#ece8e6;fill-opacity:1;stroke:none;stroke-width:0.329999"
         id="path1-4"
         d="m 84.953516,45.529316 c 0,3.116334 -11.739647,3.122121 -13.943228,5.325702 -2.203581,2.203582 -2.209368,13.943228 -5.325702,13.943228 -3.116335,0 -3.122122,-11.739646 -5.325703,-13.943228 -2.203581,-2.203581 -13.943228,-2.209368 -13.943228,-5.325702 0,-3.116334 11.739647,-3.122121 13.943228,-5.325702 2.203581,-2.203582 2.209368,-13.943228 5.325703,-13.943228 3.116334,0 3.122121,11.739646 5.325702,13.943228 2.203581,2.203581 13.943228,2.209368 13.943228,5.325702 z"
         transform="matrix(0.55871944,0,0,0.55871944,68.187874,114.04421)" /><path
         style="fill:#ece8e6;fill-opacity:1;stroke:none;stroke-width:0.329999"
         id="path1-7"
         d="m 84.953516,45.529316 c 0,3.116334 -11.739647,3.122121 -13.943228,5.325702 -2.203581,2.203582 -2.209368,13.943228 -5.325702,13.943228 -3.116335,0 -3.122122,-11.739646 -5.325703,-13.943228 -2.203581,-2.203581 -13.943228,-2.209368 -13.943228,-5.325702 0,-3.116334 11.739647,-3.122121 13.943228,-5.325702 2.203581,-2.203582 2.209368,-13.943228 5.325703,-13.943228 3.116334,0 3.122121,11.739646 5.325702,13.943228 2.203581,2.203581 13.943228,2.209368 13.943228,5.325702 z"
         transform="matrix(0.74550486,0,0,0.74550486,92.305341,79.483925)" /><path
         style="fill:#ece8e6;fill-opacity:1;stroke:none;stroke-width:0.329999"
         d="m 74.186374,119.29627 -6.935089,4.3901 c 0,0 -5.917096,3.24486 -6.616967,4.07198 -0.69987,0.82712 -8.420516,22.50055 -8.420516,22.50055 0,0 -1.479468,3.32586 -0.232441,4.53994 1.407783,1.37059 4.686488,-0.75357 4.686488,-0.75357 0,0 20.508886,-9.68088 21.272381,-10.508 0.763497,-0.82712 6.235218,-15.14267 6.235218,-15.14267 z"
         id="path2" /><circle
         style="fill:#2e2942;fill-opacity:1;stroke:none;stroke-width:0.329999"
         id="path3"
         cx="68.587402"
         cy="136.28407"
         r="2.7994859" /><rect
         style="fill:#2e2942;fill-opacity:1;stroke:none;stroke-width:0.285433"
         id="rect3"
         width="2.7516117"
         height="23.553797"
         x="140.32361"
         y="58.223076"
         ry="1.375806"
         transform="rotate(41.485795)" /><rect
         style="fill:#ece8e6;fill-opacity:1;stroke:none;stroke-width:0.329999"
         id="rect5"
         width="22.941368"
         height="46.386227"
         x="131.28894"
         y="-14.384596"
         ry="7.8533263"
         transform="rotate(43.568903)" /><rect
         style="fill:#050404;fill-opacity:1;stroke:none;stroke-width:0.329999"
         id="rect4"
         width="17.447454"
         height="4.7182169"
         x="133.64116"
         y="33.670673"
         ry="1.5906169"
         transform="rotate(42.288414)" /><path
         style="fill:#ece8e6;fill-opacity:1;stroke:none;stroke-width:0.329999"
         d="m 98.256941,83.500403 c 0,0 39.638549,-41.185617 42.919929,-43.189863 2.93546,-1.792962 7.91814,-3.149261 13.49683,0.899787 5.57869,4.049051 5.30875,9.177848 4.94884,10.797466 -0.35992,1.619621 -0.91911,2.945874 -2.87933,5.758648 -2.21884,3.183874 -36.35147,42.739969 -36.35147,42.739969 0,0 -0.17995,0.53987 -0.80981,0.4499 -0.62985,-0.09 -21.324989,-17.455907 -21.324989,-17.455907 z"
         id="path6" /><rect
         style="fill:#050404;fill-opacity:1;stroke:none;stroke-width:0.329999"
         id="rect4-2"
         width="28.382151"
         height="7.1788292"
         x="128.54109"
         y="-6.3482485"
         ry="1.5906169"
         transform="rotate(42.288414)" /><path
         style="fill:#ece8e6;fill-opacity:1;stroke:none;stroke-width:0.329999"
         d="M 161.9248,57.071336 136.66581,86.78406 c 0,0 -1.52699,2.03599 0.19087,3.562982 1.71787,1.526993 3.75386,0 3.75386,0 0,0 1.40666,-0.863995 2.41774,-1.845114 1.35502,-1.314869 3.72204,-3.897012 3.72204,-3.897012 l 13.45662,-16.144763 c 0,0 1.90874,-2.481363 2.48136,-4.517352 0.57262,-2.03599 0.57262,-3.499356 0.19088,-4.962724 -0.38175,-1.463368 -0.95438,-1.908741 -0.95438,-1.908741 z"
         id="path7" /></g></g></svg>
